<svg version="1.1" id="Layer_1" xmlns="http://www.w3.org/2000/svg" x="0" y="0" viewBox="0 0 220 220" style="enable-background:new 0 0 220 220" xml:space="preserve"><style>.st2{fill:#fff}</style><g id="XMLID_187_"><g id="XMLID_203_"><path id="XMLID_205_" style="fill:#d7262b" d="M110 10 16.9 43.2l14.2 123.1L110 210l78.9-43.7 14.2-123.1z"/><path id="XMLID_204_" style="fill:#b51f22" d="M110 10v22.2-.1V210l78.9-43.7 14.2-123.1z"/></g><g id="XMLID_188_"><g id="XMLID_193_"><path id="XMLID_83_" class="st2" d="M153 72V60.5c0-2.7-1.8-4.5-4.5-4.5h-78c-2.7 0-5.5 1.8-5.5 4.5v94c0 2.7 2.8 5.5 5.5 5.5H96c6 0 6-10 0-10H70.5c1.7 1 3.5 2.8 4.5 4.5v-94c-1 1.7-2.8 3.5-4.5 5.5h78c-1.7-2-3.5-3.8-5.5-5.5V72c0 7 10 7 10 0 0 0 0 7 0 0z"/></g><g id="XMLID_195_"><path id="XMLID_82_" class="st2" d="M91 89h27c6.4 0 6.4-10 0-10H91c-6.4 0-6.4 10 0 10z"/></g><g id="XMLID_196_"><path id="XMLID_81_" class="st2" d="M91 111h20c7 0 7-10 0-10H91c-6.4 0-6.4 10 0 10z"/></g><g id="XMLID_197_"><path id="XMLID_80_" class="st2" d="M91 134h4.8c2.6 0 5.1-2.3 5-5-.1-2.7-2.2-5-5-5H91c-2.6 0-5.1 2.3-5 5 .1 2.7 2.2 5 5 5z"/></g><path id="XMLID_192_" class="st2" d="M141 124.2c1.4 4.7 3.4 9.1 4 13.6 1.2 7.9-1.6 14.6-8.4 19-6.8 4.4-14.1 3.9-20.9-.1-7.4-4.4-11-11.1-9.5-19.8 1.2-7.2 5.2-12.7 12.2-15.6 2.7-1.1 5.5-1.9 9.3-3.3-1.3-2.7-2.9-5.3-3.9-8.1-2.5-7.2-1.8-14.1 2.9-20.2 6.9-8.8 19.8-9.1 29-.9 8.1 7.2 8.4 19.7.5 27.4-2.1 2-4.6 3.6-7.2 4.9-2.6 1.4-5.4 2.1-8 3.1zm-7.5 1.2c-4.6 1.5-8.2 2.3-11.6 3.8-4 1.7-6.6 4.8-7.2 9.2-.8 6.2 4.4 12 11.1 12.4 6.4.4 11.8-4.3 11.4-10.9-.5-4.6-2.4-9.2-3.7-14.5zm1.2-8c4.6-1.6 8.7-2.6 12.4-4.5 5.3-2.7 7.4-8.8 5.4-13.7-2.2-5.3-8.7-8.5-14.2-6.9-5.3 1.4-8.6 6.6-7.6 12.6.9 4 2.6 7.9 4 12.5z"/></g></g></svg>